<svg version="1.1" id="Capa_1" xmlns="http://www.w3.org/2000/svg" xmlns:xlink="http://www.w3.org/1999/xlink" x="0px" y="0px"
	viewBox="0 0 512.001 512.001" style="enable-background:new 0 0 512.001 512.001;" xml:space="preserve">
<g>
	<polygon style="fill:#B7E4F8;" points="257.558,474.258 236.345,453.046 228.095,461.296 219.845,453.046 198.632,474.258 
		206.882,482.508 198.632,490.757 219.845,511.97 228.095,503.721 236.345,511.97 257.558,490.757 249.308,482.508 	"/>
	<polygon style="fill:#B7E4F8;" points="121.489,389.046 113.239,397.296 104.989,389.046 83.776,410.258 92.026,418.508 
		83.776,426.757 104.989,447.97 113.239,439.721 121.489,447.97 142.702,426.757 134.452,418.508 142.702,410.258 	"/>
</g>
<g>
	<polygon style="fill:#93D6F4;" points="332.344,384.09 324.094,392.34 315.845,384.09 294.632,405.303 302.882,413.553 
		294.632,421.803 315.845,443.016 324.094,434.766 332.344,443.016 353.557,421.803 345.307,413.553 353.557,405.303 	"/>
	<polygon style="fill:#93D6F4;" points="421.652,437.303 400.439,416.09 392.19,424.34 383.94,416.09 362.727,437.303 
		370.977,445.553 362.727,453.803 383.94,475.016 392.19,466.766 400.439,475.016 421.652,453.803 413.402,445.553 	"/>
</g>
<path style="fill:#B7E4F8;" d="M429.319,340.826c13.647-13.899,27.596-27.504,41.836-40.8c7.364-7.962,14.717-15.938,21.985-23.984
	c0.736-22.26,1.219-44.53,1.611-66.8c-17.029-30.103-35.891-70.609-74.418-74.879c-0.01-1.348-0.057-5.327-0.125-6.661
	c-2.435-47.284-41.663-85.006-89.542-85.006c-15.308,0-30.239,3.916-43.445,11.24c-8.033-13.4-18.836-24.984-31.859-34.053
	C236.711,6.896,214.801,0.03,192,0.03c-61.206,0-111,49.794-111,111c0,7.438,0.667,17.667,3.667,26.333
	c-40.734,24.848-67.142,61.266-67.825,110.385c23.605,32.81,45.86,66.572,68.181,100.282h335.06
	C423.18,345.654,426.254,343.246,429.319,340.826z"/>
<g>
	<path style="fill:#93D6F4;" d="M420.333,134.363c-0.01-1.348-0.057-5.327-0.125-6.661c-2.435-47.284-41.663-85.006-89.542-85.006
		c-15.308,0-30.239,3.916-43.445,11.24c-7.9-13.179-18.485-24.595-31.221-33.596v327.69h164.081
		c3.099-2.377,6.173-4.785,9.237-7.204c13.647-13.899,27.596-27.504,41.836-40.8c7.364-7.962,14.717-15.938,21.985-23.984
		c0.736-22.26,1.219-44.53,1.611-66.8C477.722,179.14,458.861,138.633,420.333,134.363z"/>
	<path style="fill:#93D6F4;" d="M397.585,108.242c-51.703,0-93.768,41.989-93.768,93.601c0,4.41,0.393,8.729,1.107,12.938
		c6.188,36.465,38.037,64.33,76.303,64.33c35.539,0,64.453-28.858,64.453-64.33h-30.096c0,18.93-15.412,34.33-34.357,34.33
		c-26.09,0-47.314-21.204-47.314-47.269c0-35.069,28.563-63.601,63.672-63.601c46.494,0,84.32,37.779,84.32,84.217
		c0,60.785-49.518,110.238-110.383,110.238H140.478c-60.865,0-110.382-49.453-110.382-110.238c0-46.438,37.826-84.217,84.32-84.217
		c35.109,0,63.672,28.531,63.672,63.601c0,26.064-21.226,47.269-47.315,47.269c-18.945,0-34.358-15.4-34.358-34.33H66.319
		c0,35.472,28.914,64.33,64.453,64.33c38.266,0,70.116-27.865,76.304-64.33c0.714-4.21,1.106-8.528,1.106-12.938
		c0-51.611-42.064-93.601-93.768-93.601C51.327,108.242,0,159.479,0,222.459c0,77.327,63.018,140.238,140.478,140.238h231.045
		c77.459,0,140.478-62.911,140.478-140.238C512,159.479,460.674,108.242,397.585,108.242z"/>
</g>
<path style="fill:#4BBAED;" d="M397.585,108.242c-51.703,0-93.768,41.989-93.768,93.601c0,4.41,0.393,8.729,1.107,12.938
	c6.188,36.465,38.037,64.33,76.303,64.33c35.539,0,64.453-28.858,64.453-64.33h-30.096c0,18.93-15.412,34.33-34.357,34.33
	c-26.09,0-47.314-21.204-47.314-47.269c0-35.069,28.563-63.601,63.672-63.601c46.494,0,84.32,37.779,84.32,84.217
	c0,60.785-49.518,110.238-110.383,110.238H256v30h115.523c77.459,0,140.478-62.911,140.478-140.238
	C512,159.479,460.674,108.242,397.585,108.242z"/>
<g>
</g>
<g>
</g>
<g>
</g>
<g>
</g>
<g>
</g>
<g>
</g>
<g>
</g>
<g>
</g>
<g>
</g>
<g>
</g>
<g>
</g>
<g>
</g>
<g>
</g>
<g>
</g>
<g>
</g>
</svg>
